<svg xmlns="http://www.w3.org/2000/svg" xmlns:xlink="http://www.w3.org/1999/xlink" width="500" zoomAndPan="magnify" viewBox="0 0 375 374.999991" height="500" preserveAspectRatio="xMidYMid meet" version="1.0"><defs><clipPath id="e959607333"><path d="M 27.855469 40 L 220 40 L 220 336 L 27.855469 336 Z M 27.855469 40 " clip-rule="nonzero"/></clipPath><clipPath id="fb312230c8"><path d="M 27.855469 40 L 220 40 L 220 263 L 27.855469 263 Z M 27.855469 40 " clip-rule="nonzero"/></clipPath><clipPath id="3fcf5c7d96"><path d="M 288 39.175781 L 347.355469 39.175781 L 347.355469 98 L 288 98 Z M 288 39.175781 " clip-rule="nonzero"/></clipPath><clipPath id="5bde752549"><path d="M 150 43 L 347.355469 43 L 347.355469 333 L 150 333 Z M 150 43 " clip-rule="nonzero"/></clipPath><clipPath id="9e9c7fc0d1"><path d="M 150 43 L 347.355469 43 L 347.355469 262 L 150 262 Z M 150 43 " clip-rule="nonzero"/></clipPath></defs><g clip-path="url(#e959607333)"><path fill="#72ffff" d="M 103.800781 54.035156 L 206.429688 156.664062 C 207.460938 157.695312 208.4375 158.773438 209.359375 159.902344 C 210.285156 161.027344 211.152344 162.195312 211.960938 163.40625 C 212.769531 164.621094 213.519531 165.867188 214.207031 167.152344 C 214.894531 168.4375 215.515625 169.753906 216.074219 171.101562 C 216.628906 172.445312 217.121094 173.816406 217.542969 175.210938 C 217.96875 176.605469 218.320312 178.015625 218.605469 179.445312 C 218.890625 180.875 219.101562 182.316406 219.246094 183.765625 C 219.386719 185.214844 219.460938 186.667969 219.460938 188.125 C 219.460938 189.582031 219.386719 191.039062 219.246094 192.488281 C 219.101562 193.9375 218.890625 195.378906 218.605469 196.804688 C 218.320312 198.234375 217.96875 199.648438 217.542969 201.042969 C 217.121094 202.4375 216.628906 203.808594 216.074219 205.152344 C 215.515625 206.5 214.894531 207.816406 214.207031 209.101562 C 213.519531 210.386719 212.769531 211.632812 211.960938 212.84375 C 211.152344 214.058594 210.285156 215.226562 209.359375 216.351562 C 208.4375 217.480469 207.460938 218.558594 206.429688 219.589844 L 103.800781 322.214844 C 75.769531 350.246094 27.832031 330.382812 27.855469 290.722656 L 27.855469 85.464844 C 27.832031 45.871094 75.769531 26.007812 103.800781 54.035156 Z M 103.800781 54.035156 " fill-opacity="1" fill-rule="nonzero"/></g><g clip-path="url(#fb312230c8)"><path fill="#00d7ff" d="M 103.800781 54.035156 C 75.929688 26.167969 28.539062 45.644531 27.878906 84.800781 C 27.878906 84.800781 189.371094 237.605469 163.691406 262.507812 L 206.519531 219.679688 C 207.550781 218.648438 208.527344 217.570312 209.453125 216.445312 C 210.375 215.316406 211.242188 214.148438 212.054688 212.9375 C 212.863281 211.726562 213.609375 210.476562 214.296875 209.191406 C 214.984375 207.90625 215.605469 206.589844 216.164062 205.242188 C 216.722656 203.898438 217.210938 202.527344 217.636719 201.132812 C 218.058594 199.738281 218.410156 198.328125 218.695312 196.898438 C 218.980469 195.46875 219.195312 194.027344 219.335938 192.578125 C 219.480469 191.128906 219.550781 189.675781 219.550781 188.21875 C 219.550781 186.761719 219.480469 185.308594 219.335938 183.855469 C 219.195312 182.40625 218.980469 180.964844 218.695312 179.539062 C 218.410156 178.109375 218.058594 176.695312 217.636719 175.300781 C 217.210938 173.90625 216.722656 172.539062 216.164062 171.191406 C 215.605469 169.84375 214.984375 168.527344 214.296875 167.242188 C 213.609375 165.957031 212.863281 164.710938 212.054688 163.5 C 211.242188 162.285156 210.375 161.117188 209.453125 159.992188 C 208.527344 158.863281 207.550781 157.785156 206.519531 156.757812 Z M 103.800781 54.035156 " fill-opacity="1" fill-rule="nonzero"/></g><g clip-path="url(#3fcf5c7d96)"><path fill="#590696" d="M 347.144531 68.585938 C 347.144531 69.539062 347.097656 70.488281 347.003906 71.4375 C 346.910156 72.386719 346.769531 73.324219 346.585938 74.261719 C 346.398438 75.195312 346.167969 76.117188 345.890625 77.027344 C 345.617188 77.9375 345.292969 78.835938 344.929688 79.714844 C 344.566406 80.59375 344.160156 81.453125 343.710938 82.292969 C 343.261719 83.132812 342.773438 83.949219 342.242188 84.742188 C 341.714844 85.535156 341.148438 86.296875 340.542969 87.035156 C 339.9375 87.769531 339.300781 88.476562 338.628906 89.148438 C 337.953125 89.820312 337.25 90.460938 336.511719 91.066406 C 335.777344 91.667969 335.011719 92.234375 334.222656 92.765625 C 333.429688 93.292969 332.613281 93.78125 331.773438 94.230469 C 330.933594 94.679688 330.074219 95.085938 329.195312 95.453125 C 328.3125 95.816406 327.417969 96.136719 326.507812 96.414062 C 325.59375 96.691406 324.671875 96.921875 323.738281 97.105469 C 322.804688 97.292969 321.863281 97.433594 320.914062 97.523438 C 319.96875 97.617188 319.019531 97.664062 318.066406 97.664062 C 317.113281 97.664062 316.164062 97.617188 315.214844 97.523438 C 314.269531 97.433594 313.328125 97.292969 312.394531 97.105469 C 311.457031 96.921875 310.535156 96.691406 309.625 96.414062 C 308.714844 96.136719 307.816406 95.816406 306.9375 95.453125 C 306.058594 95.085938 305.199219 94.679688 304.359375 94.230469 C 303.519531 93.78125 302.703125 93.292969 301.910156 92.765625 C 301.117188 92.234375 300.355469 91.667969 299.617188 91.066406 C 298.882812 90.460938 298.179688 89.820312 297.503906 89.148438 C 296.832031 88.476562 296.191406 87.769531 295.589844 87.035156 C 294.984375 86.296875 294.417969 85.535156 293.886719 84.742188 C 293.359375 83.949219 292.871094 83.132812 292.421875 82.292969 C 291.972656 81.453125 291.566406 80.59375 291.199219 79.714844 C 290.835938 78.835938 290.515625 77.9375 290.238281 77.027344 C 289.964844 76.117188 289.730469 75.195312 289.546875 74.261719 C 289.359375 73.324219 289.222656 72.386719 289.128906 71.4375 C 289.035156 70.488281 288.988281 69.539062 288.988281 68.585938 C 288.988281 67.632812 289.035156 66.683594 289.128906 65.738281 C 289.222656 64.789062 289.359375 63.847656 289.546875 62.914062 C 289.730469 61.980469 289.964844 61.058594 290.238281 60.144531 C 290.515625 59.234375 290.835938 58.339844 291.199219 57.460938 C 291.566406 56.578125 291.972656 55.71875 292.421875 54.878906 C 292.871094 54.039062 293.359375 53.222656 293.886719 52.433594 C 294.417969 51.640625 294.984375 50.875 295.589844 50.140625 C 296.191406 49.402344 296.832031 48.699219 297.503906 48.027344 C 298.179688 47.351562 298.882812 46.714844 299.617188 46.109375 C 300.355469 45.503906 301.117188 44.9375 301.910156 44.410156 C 302.703125 43.878906 303.519531 43.390625 304.359375 42.941406 C 305.199219 42.492188 306.058594 42.085938 306.9375 41.722656 C 307.816406 41.359375 308.714844 41.039062 309.625 40.761719 C 310.535156 40.484375 311.457031 40.253906 312.394531 40.066406 C 313.328125 39.882812 314.269531 39.742188 315.214844 39.648438 C 316.164062 39.554688 317.113281 39.507812 318.066406 39.507812 C 319.019531 39.507812 319.96875 39.554688 320.914062 39.648438 C 321.863281 39.742188 322.804688 39.882812 323.738281 40.066406 C 324.671875 40.253906 325.59375 40.484375 326.507812 40.761719 C 327.417969 41.039062 328.3125 41.359375 329.195312 41.722656 C 330.074219 42.085938 330.933594 42.492188 331.773438 42.941406 C 332.613281 43.390625 333.429688 43.878906 334.222656 44.410156 C 335.011719 44.9375 335.777344 45.503906 336.511719 46.109375 C 337.25 46.714844 337.953125 47.351562 338.628906 48.027344 C 339.300781 48.699219 339.9375 49.402344 340.542969 50.140625 C 341.148438 50.875 341.714844 51.640625 342.242188 52.433594 C 342.773438 53.222656 343.261719 54.039062 343.710938 54.878906 C 344.160156 55.71875 344.566406 56.578125 344.929688 57.460938 C 345.292969 58.339844 345.617188 59.234375 345.890625 60.144531 C 346.167969 61.058594 346.398438 61.980469 346.585938 62.914062 C 346.769531 63.847656 346.910156 64.789062 347.003906 65.738281 C 347.097656 66.683594 347.144531 67.632812 347.144531 68.585938 Z M 347.144531 68.585938 " fill-opacity="1" fill-rule="nonzero"/><path fill="#590696" d="M 347.144531 68.585938 C 347.144531 69.539062 347.097656 70.488281 347.003906 71.4375 C 346.910156 72.386719 346.769531 73.324219 346.585938 74.261719 C 346.398438 75.195312 346.167969 76.117188 345.890625 77.027344 C 345.617188 77.9375 345.292969 78.835938 344.929688 79.714844 C 344.566406 80.59375 344.160156 81.453125 343.710938 82.292969 C 343.261719 83.132812 342.773438 83.949219 342.242188 84.742188 C 341.714844 85.535156 341.148438 86.296875 340.542969 87.035156 C 339.9375 87.769531 339.300781 88.476562 338.628906 89.148438 C 337.953125 89.820312 337.25 90.460938 336.511719 91.066406 C 335.777344 91.667969 335.011719 92.234375 334.222656 92.765625 C 333.429688 93.292969 332.613281 93.78125 331.773438 94.230469 C 330.933594 94.679688 330.074219 95.085938 329.195312 95.453125 C 328.3125 95.816406 327.417969 96.136719 326.507812 96.414062 C 325.59375 96.691406 324.671875 96.921875 323.738281 97.105469 C 322.804688 97.292969 321.863281 97.433594 320.914062 97.523438 C 319.96875 97.617188 319.019531 97.664062 318.066406 97.664062 C 317.113281 97.664062 316.164062 97.617188 315.214844 97.523438 C 314.269531 97.433594 313.328125 97.292969 312.394531 97.105469 C 311.457031 96.921875 310.535156 96.691406 309.625 96.414062 C 308.714844 96.136719 307.816406 95.816406 306.9375 95.453125 C 306.058594 95.085938 305.199219 94.679688 304.359375 94.230469 C 303.519531 93.78125 302.703125 93.292969 301.910156 92.765625 C 301.117188 92.234375 300.355469 91.667969 299.617188 91.066406 C 298.882812 90.460938 298.179688 89.820312 297.503906 89.148438 C 296.832031 88.476562 296.191406 87.769531 295.589844 87.035156 C 294.984375 86.296875 294.417969 85.535156 293.886719 84.742188 C 293.359375 83.949219 292.871094 83.132812 292.421875 82.292969 C 291.972656 81.453125 291.566406 80.59375 291.199219 79.714844 C 290.835938 78.835938 290.515625 77.9375 290.238281 77.027344 C 289.964844 76.117188 289.730469 75.195312 289.546875 74.261719 C 289.359375 73.324219 289.222656 72.386719 289.128906 71.4375 C 289.035156 70.488281 288.988281 69.539062 288.988281 68.585938 C 288.988281 67.632812 289.035156 66.683594 289.128906 65.738281 C 289.222656 64.789062 289.359375 63.847656 289.546875 62.914062 C 289.730469 61.980469 289.964844 61.058594 290.238281 60.144531 C 290.515625 59.234375 290.835938 58.339844 291.199219 57.460938 C 291.566406 56.578125 291.972656 55.71875 292.421875 54.878906 C 292.871094 54.039062 293.359375 53.222656 293.886719 52.433594 C 294.417969 51.640625 294.984375 50.875 295.589844 50.140625 C 296.191406 49.402344 296.832031 48.699219 297.503906 48.027344 C 298.179688 47.351562 298.882812 46.714844 299.617188 46.109375 C 300.355469 45.503906 301.117188 44.9375 301.910156 44.410156 C 302.703125 43.878906 303.519531 43.390625 304.359375 42.941406 C 305.199219 42.492188 306.058594 42.085938 306.9375 41.722656 C 307.816406 41.359375 308.714844 41.039062 309.625 40.761719 C 310.535156 40.484375 311.457031 40.253906 312.394531 40.066406 C 313.328125 39.882812 314.269531 39.742188 315.214844 39.648438 C 316.164062 39.554688 317.113281 39.507812 318.066406 39.507812 C 319.019531 39.507812 319.96875 39.554688 320.914062 39.648438 C 321.863281 39.742188 322.804688 39.882812 323.738281 40.066406 C 324.671875 40.253906 325.59375 40.484375 326.507812 40.761719 C 327.417969 41.039062 328.3125 41.359375 329.195312 41.722656 C 330.074219 42.085938 330.933594 42.492188 331.773438 42.941406 C 332.613281 43.390625 333.429688 43.878906 334.222656 44.410156 C 335.011719 44.9375 335.777344 45.503906 336.511719 46.109375 C 337.25 46.714844 337.953125 47.351562 338.628906 48.027344 C 339.300781 48.699219 339.9375 49.402344 340.542969 50.140625 C 341.148438 50.875 341.714844 51.640625 342.242188 52.433594 C 342.773438 53.222656 343.261719 54.039062 343.710938 54.878906 C 344.160156 55.71875 344.566406 56.578125 344.929688 57.460938 C 345.292969 58.339844 345.617188 59.234375 345.890625 60.144531 C 346.167969 61.058594 346.398438 61.980469 346.585938 62.914062 C 346.769531 63.847656 346.910156 64.789062 347.003906 65.738281 C 347.097656 66.683594 347.144531 67.632812 347.144531 68.585938 Z M 347.144531 68.585938 " fill-opacity="1" fill-rule="nonzero"/></g><g clip-path="url(#5bde752549)"><path fill="#0096ff" d="M 334.097656 156.917969 L 231.46875 54.289062 C 203.921875 26.714844 130.484375 58.6875 155.617188 83.820312 L 229.417969 157.644531 C 230.449219 158.675781 231.425781 159.753906 232.351562 160.878906 C 233.277344 162.003906 234.144531 163.171875 234.953125 164.382812 C 235.761719 165.59375 236.511719 166.84375 237.199219 168.128906 C 237.886719 169.410156 238.507812 170.726562 239.066406 172.074219 C 239.625 173.417969 240.117188 174.789062 240.539062 176.183594 C 240.960938 177.578125 241.316406 178.988281 241.601562 180.417969 C 241.886719 181.847656 242.097656 183.285156 242.242188 184.734375 C 242.382812 186.183594 242.457031 187.640625 242.457031 189.097656 C 242.457031 190.554688 242.382812 192.007812 242.242188 193.457031 C 242.097656 194.90625 241.886719 196.34375 241.601562 197.773438 C 241.316406 199.203125 240.960938 200.613281 240.539062 202.007812 C 240.117188 203.402344 239.625 204.773438 239.066406 206.117188 C 238.507812 207.464844 237.886719 208.78125 237.199219 210.0625 C 236.511719 211.347656 235.761719 212.597656 234.953125 213.808594 C 234.144531 215.019531 233.277344 216.1875 232.351562 217.3125 C 231.425781 218.4375 230.449219 219.515625 229.417969 220.546875 L 155.660156 294.324219 C 133.175781 316.789062 204.195312 349.925781 231.46875 322.648438 L 334.097656 220.019531 C 335.136719 218.988281 336.121094 217.910156 337.050781 216.78125 C 337.980469 215.652344 338.855469 214.480469 339.667969 213.269531 C 340.484375 212.054688 341.238281 210.800781 341.929688 209.511719 C 342.621094 208.226562 343.25 206.90625 343.808594 205.554688 C 344.371094 204.203125 344.863281 202.828125 345.292969 201.429688 C 345.71875 200.03125 346.074219 198.613281 346.359375 197.179688 C 346.644531 195.746094 346.863281 194.300781 347.003906 192.847656 C 347.148438 191.390625 347.222656 189.929688 347.222656 188.46875 C 347.222656 187.007812 347.148438 185.546875 347.003906 184.089844 C 346.863281 182.636719 346.644531 181.191406 346.359375 179.757812 C 346.074219 178.324219 345.71875 176.90625 345.292969 175.507812 C 344.863281 174.105469 344.371094 172.734375 343.808594 171.382812 C 343.25 170.03125 342.621094 168.710938 341.929688 167.421875 C 341.238281 166.136719 340.484375 164.882812 339.667969 163.667969 C 338.855469 162.453125 337.980469 161.285156 337.050781 160.15625 C 336.121094 159.027344 335.136719 157.945312 334.097656 156.917969 Z M 334.097656 156.917969 " fill-opacity="1" fill-rule="nonzero"/></g><g clip-path="url(#9e9c7fc0d1)"><path fill="#5800ff" d="M 334.097656 156.917969 L 231.46875 54.289062 C 203.921875 26.714844 130.484375 58.6875 155.617188 83.820312 L 229.417969 157.644531 C 231.1875 159.410156 232.792969 161.3125 234.242188 163.351562 C 235.6875 165.390625 236.953125 167.535156 238.035156 169.789062 C 239.121094 172.039062 240.007812 174.367188 240.695312 176.769531 C 241.386719 179.171875 241.867188 181.617188 242.144531 184.101562 C 267.574219 213.953125 288.714844 242.941406 293.117188 261.003906 L 334.167969 219.953125 C 335.199219 218.921875 336.179688 217.839844 337.109375 216.710938 C 338.035156 215.582031 338.90625 214.410156 339.714844 213.199219 C 340.527344 211.984375 341.277344 210.730469 341.964844 209.445312 C 342.65625 208.15625 343.277344 206.835938 343.835938 205.488281 C 344.394531 204.136719 344.886719 202.765625 345.308594 201.367188 C 345.734375 199.96875 346.085938 198.554688 346.371094 197.121094 C 346.65625 195.6875 346.867188 194.246094 347.011719 192.792969 C 347.152344 191.335938 347.222656 189.882812 347.222656 188.421875 C 347.21875 186.960938 347.144531 185.503906 347 184.050781 C 346.855469 182.597656 346.640625 181.152344 346.351562 179.722656 C 346.066406 178.289062 345.707031 176.875 345.28125 175.476562 C 344.855469 174.082031 344.363281 172.707031 343.800781 171.359375 C 343.238281 170.011719 342.613281 168.695312 341.921875 167.40625 C 341.230469 166.121094 340.476562 164.871094 339.664062 163.660156 C 338.847656 162.445312 337.976562 161.277344 337.046875 160.152344 C 336.117188 159.023438 335.132812 157.945312 334.097656 156.917969 Z M 334.097656 156.917969 " fill-opacity="1" fill-rule="nonzero"/></g></svg>